<svg width="100" height="100" viewBox="0 0 100 100" fill="none" xmlns="http://www.w3.org/2000/svg">
<rect width="100" height="100" fill="#3B5C4D"/>
<path d="M18.773 87.5V83.468H20.021C21.493 83.468 22.805 83.308 23.957 82.988C25.173 82.668 26.133 82.028 26.837 81.068C27.541 80.044 27.893 78.54 27.893 76.556V29.516C27.893 27.596 27.509 26.188 26.741 25.292C26.037 24.332 25.077 23.724 23.861 23.468C22.709 23.148 21.429 22.988 20.021 22.988H18.773V18.956H48.149C54.741 18.956 60.373 20.3 65.045 22.988C69.717 25.612 73.269 29.484 75.701 34.604C78.197 39.66 79.445 45.836 79.445 53.132C79.445 60.108 78.261 66.188 75.893 71.372C73.589 76.492 70.133 80.46 65.525 83.276C60.917 86.092 55.125 87.5 48.149 87.5H18.773ZM45.941 82.604C51.061 82.604 55.285 81.484 58.613 79.244C62.005 76.94 64.533 73.612 66.197 69.26C67.925 64.844 68.789 59.468 68.789 53.132C68.789 46.796 67.925 41.452 66.197 37.1C64.533 32.748 62.005 29.452 58.613 27.212C55.285 24.908 51.093 23.756 46.037 23.756H37.589V82.604H45.941Z" fill="white"/>
</svg>
